<svg width="310" height="68" viewBox="0 0 310 68" fill="none" xmlns="http://www.w3.org/2000/svg">
<g clip-path="url(#clip0_3206_960)">
<path d="M107.804 17.5347V12.8025H100.704V40.3154H107.804V27.1626C107.804 21.3833 112.479 19.7357 116.167 20.1759V12.2522C112.699 12.2522 109.234 13.7929 107.804 17.5347Z" fill="white"/>
<path d="M125.192 32.6086C122.481 29.5775 120.918 25.5244 120.918 21.0563C120.918 11.5919 127.908 3.99832 138.033 3.99832C144.086 3.99832 149.422 7.18982 151.953 11.922L154.541 10.4348C151.349 4.82214 145.13 1.19043 138.033 1.19043C126.311 1.19043 118.004 10.048 118.004 21.0532C118.004 23.8548 118.544 26.5118 119.538 28.9235C121.645 30.3982 123.494 31.6213 125.188 32.6055H125.192V32.6086Z" fill="white"/>
<path d="M38.9205 12.8025H31.8206V40.3154H38.9205V12.8025Z" fill="white"/>
<path d="M28.2298 14.5632C28.2298 7.51993 22.5072 1.79724 15.4072 1.79724H0V40.3153H7.59357V26.9425H13.3729L21.1299 40.3153H29.3304L20.8029 25.7885C25.205 23.7541 28.2298 19.4055 28.2298 14.5632ZM15.4104 20.2859H7.59671V8.89715H15.4104C18.2717 8.89715 20.6363 11.3749 20.6363 14.5632C20.6363 17.7516 18.2717 20.2859 15.4104 20.2859Z" fill="white"/>
<path d="M83.4758 12.0321C74.8352 12.0321 68.949 18.3585 68.949 26.5589C68.949 34.7594 74.7817 41.0858 84.0261 41.0858C89.3085 41.0858 93.4339 38.9382 96.0217 35.1964L90.299 31.8949C89.0884 33.4922 86.8874 34.6462 84.1361 34.6462C80.3944 34.6462 77.3664 33.1054 76.379 29.4737H97.1254C97.2889 28.5399 97.3989 27.6029 97.3989 26.5589C97.3989 18.4717 91.6228 12.0321 83.4789 12.0321H83.4758ZM76.269 23.9711C77.0928 20.4495 79.6806 18.412 83.4789 18.412C86.4503 18.412 89.4217 20.0093 90.3022 23.9711H76.269Z" fill="white"/>
<path d="M35.3423 0.750244C32.9746 0.750244 30.9937 2.78777 30.9937 5.15231C30.9937 7.51685 32.9746 9.50093 35.3423 9.50093C37.71 9.50093 39.7443 7.52 39.7443 5.15231C39.7443 2.78463 37.7634 0.750244 35.3423 0.750244Z" fill="white"/>
<path d="M61.8711 12.8025L55.1579 32.0615L48.4982 12.8025H40.6846L51.1395 40.3154H59.2299L69.6848 12.8025H61.8711Z" fill="white"/>
<path d="M167.854 12.1956C159.82 12.1956 153.381 18.4119 153.381 26.5557C153.381 27.8481 153.544 29.0932 153.849 30.2723C154.695 29.9359 155.572 29.5837 156.484 29.2158C156.292 28.3637 156.189 27.4739 156.189 26.5557C156.189 20.0061 161.304 14.8337 167.854 14.8337C174.404 14.8337 179.463 20.0061 179.463 26.5557C179.463 33.1054 174.401 38.2747 167.854 38.2747C166.024 38.2747 164.307 37.8691 162.779 37.1459L162.543 37.3251C161.845 37.847 161.103 38.3659 160.33 38.8878C162.518 40.1833 165.093 40.9191 167.854 40.9191C175.831 40.9191 182.271 34.6996 182.271 26.5589C182.271 18.4182 175.831 12.1987 167.854 12.1987V12.1956Z" fill="white"/>
<path d="M238.438 18.195V12.8024H235.687V40.3154H238.438V25.0182C238.438 17.9749 242.897 15.0601 247.629 15.0601V12.4188C243.887 12.4188 240.309 13.8495 238.438 18.1981V18.195Z" fill="white"/>
<path d="M222.537 5.09875L219.729 5.92257V12.8024H213.676V15.5002H219.729V33.3852C219.729 39.6581 223.527 41.419 230.734 40.3185V37.8407C225.122 38.3375 222.537 38.2243 222.537 33.3852V15.5002H230.734V12.8024H222.537V5.09875Z" fill="white"/>
<path d="M199.841 12.1956C195.606 12.1956 192.084 13.9564 189.993 18.0283V12.8024H187.242V40.3153H189.993V25.7885C189.993 18.3616 194.229 14.8368 199.621 14.8368C205.014 14.8368 207.712 18.1383 207.712 23.2007V40.3122H210.516V23.2007C210.516 16.5442 206.391 12.1956 199.841 12.1956Z" fill="white"/>
<path d="M262.489 12.1956C254.455 12.1956 248.019 18.4119 248.019 26.5557C248.019 34.6996 254.455 40.9159 262.489 40.9159C270.523 40.9159 276.906 34.6964 276.906 26.5557C276.906 18.4151 270.469 12.1956 262.489 12.1956ZM262.489 38.2778C255.943 38.2778 250.824 33.1054 250.824 26.5589C250.824 20.0124 255.943 14.8368 262.489 14.8368C269.036 14.8368 274.101 20.0092 274.101 26.5589C274.101 33.1085 269.039 38.2778 262.489 38.2778Z" fill="white"/>
<path d="M293.329 20.0092C293.329 16.7077 296.354 14.8368 299.932 14.8368C302.957 14.8368 305.818 16.1574 306.975 19.0188L309.286 17.6981C307.799 14.3431 304.387 12.1956 299.932 12.1956C294.319 12.1956 290.577 15.6606 290.577 20.0092C290.577 29.9139 307.249 25.6219 307.249 33.1054C307.249 36.5704 304.004 38.2778 300.152 38.2778C296.023 38.2778 293.052 36.4069 292.062 33.4355L289.697 34.8128C291.018 38.3344 294.649 40.9191 300.152 40.9191C306.038 40.9191 310 37.6175 310 33.1054C310 23.0341 293.329 27.3827 293.329 20.0092Z" fill="white"/>
<path d="M284.628 0.146484H281.877V40.3154H284.628V0.146484Z" fill="white"/>
<path fill-rule="evenodd" clip-rule="evenodd" d="M137.238 44.4092C138.596 44.73 139.973 44.9721 141.369 45.0444C145.643 45.2708 150.123 44.1671 153.818 42.0007C157.754 39.6896 161.301 36.7748 165.313 34.5675C166.417 33.9606 168.021 33.3034 170.319 32.7217C172.577 32.1495 174.53 32.1621 174.53 32.1621C169.477 31.6275 166.499 32.4482 163.175 33.6336C160.204 34.6932 152.994 38.696 152.994 38.696C152.821 38.806 152.645 38.9098 152.469 39.0136C150.771 40.0135 148.991 40.8876 147.161 41.6202C144.539 42.6673 141.816 43.315 139.002 43.532C137.53 43.6452 136.052 43.6515 134.587 43.4534C134.241 43.4062 133.898 43.3496 133.559 43.2647C133.559 43.2647 135.923 44.0948 137.244 44.4061H137.238V44.4092Z" fill="url(#paint0_linear_3206_960)"/>
<path fill-rule="evenodd" clip-rule="evenodd" d="M175.677 31.6873C171.159 28.5587 167.175 27.8324 162.499 28.6782C157.761 29.5366 149.604 33.3916 149.604 33.3916C149.604 33.3916 143.111 36.6114 137.266 37.2717C131.421 37.932 127.11 35.6115 124.871 34.3129C122.632 33.0142 120.095 30.5931 120.095 30.5931C120.095 30.5931 121.617 32.9136 124.676 36.0202C128.157 39.5513 132.182 41.4851 137.068 41.5322C142.822 41.5857 149.148 38.6363 154.711 35.7813C156.56 34.8317 158.424 33.9104 160.336 33.0929C163.697 31.6527 167.266 30.4139 170.973 30.612C172.448 30.6906 174.369 30.8761 175.674 31.6936H175.683V31.6842H175.677V31.6873Z" fill="url(#paint1_linear_3206_960)"/>
<path d="M0 67.5987V56.6312H3.47763C7.29486 56.6312 9.64682 58.7694 9.64682 62.1149C9.64682 65.4605 7.29486 67.5987 3.47763 67.5987H0ZM1.31748 57.8638V66.3692H3.41789C6.54336 66.3692 8.28847 64.882 8.28847 62.1181C8.28847 59.3542 6.54336 57.867 3.41789 57.867H1.31748V57.8638Z" fill="#AFAFAF"/>
<path d="M25.9281 67.5987H18.366V56.6312H25.9281V57.8607H19.6866V61.42H24.9408V62.6495H19.6866V66.3629H25.9281V67.5987Z" fill="#AFAFAF"/>
<path d="M34.2198 64.3412L34.2041 64.1997H35.597L35.6128 64.3192C35.6788 64.9543 35.9303 65.492 36.446 65.9322C36.9837 66.3976 37.6912 66.5674 38.4521 66.5674C39.0338 66.5674 39.6375 66.4856 40.1312 66.2498C40.8324 65.9102 41.2663 65.3662 41.2663 64.6651C41.2663 64.2437 41.1185 63.8633 40.8009 63.552C40.5494 63.3098 40.0054 63.1243 39.5998 63.0143C39.0464 62.8508 38.449 62.7407 37.8547 62.6244C37.2604 62.508 36.6535 62.3823 36.1221 62.1747C35.0373 61.7691 34.2355 61.0679 34.2355 59.609C34.2355 57.5589 36.3957 56.4552 38.4521 56.4552C40.8701 56.4552 42.5051 57.8104 42.6812 59.9265L42.6969 60.068H41.304L41.2883 59.9423C41.1468 58.543 40.0494 57.6878 38.4521 57.6878C37.8704 57.6878 37.273 57.7695 36.7793 58.0116C36.0718 58.3512 35.6379 58.8889 35.6379 59.5964C35.6379 60.0177 35.7794 60.3982 36.1033 60.7032C36.3548 60.9547 36.8988 61.1308 37.2981 61.2472C37.8515 61.4012 38.4552 61.5113 39.0527 61.6308C39.6501 61.7503 40.2475 61.8823 40.7852 62.0804C41.87 62.486 42.6718 63.1935 42.6718 64.6525C42.6718 66.6932 40.5116 67.8 38.4552 67.8C36.0373 67.8 34.4085 66.4573 34.2261 64.3443H34.2198V64.3412Z" fill="#AFAFAF"/>
<path d="M55.3654 67.5987H51.6362V66.4195H52.8311V57.8104H51.6362V56.6312H55.3654V57.8104H54.1706V66.4195H55.3654V67.5987Z" fill="#AFAFAF"/>
<path d="M67.2982 67.5264C65.943 67.1145 64.8362 66.0894 64.2923 64.948C63.8646 64.055 63.6445 63.0834 63.6445 62.1181C63.6445 60.3196 64.418 58.1909 66.2669 57.1658C67.1725 56.6659 68.1095 56.4143 69.1786 56.4143C71.2287 56.4143 72.9675 57.2979 73.8951 58.9266C74.1372 59.348 74.2944 59.7882 74.417 60.2378L74.5051 60.5617H73.1341L73.0744 60.3636C72.9863 60.0837 72.8889 59.8102 72.7505 59.5524C72.0713 58.2915 70.7539 57.606 69.1754 57.606C68.5843 57.606 68.034 57.7098 67.5026 57.9299C65.7198 58.6751 64.9966 60.4296 64.9966 62.115C64.9966 63.8004 65.7261 65.5643 67.5026 66.3001C68.0183 66.5139 68.6 66.6177 69.1754 66.6177C69.6974 66.6177 70.2382 66.5233 70.7224 66.3378C72.3009 65.7184 73.0807 64.2814 73.1624 62.7942H68.8893V61.5647H74.439V67.6018H73.1719V66.0171C72.2506 67.1805 70.8293 67.8157 69.1786 67.8157C68.5371 67.8157 67.8957 67.7119 67.2982 67.5295V67.5264Z" fill="#AFAFAF"/>
<path d="M84.7586 67.5987H83.438V56.6312H84.7052L90.9844 65.319V56.6312H92.305V67.5987H91.0441L84.7586 58.9172V67.5987Z" fill="#AFAFAF"/>
<path d="M115.111 67.7402C113.498 67.41 112.605 66.1995 112.605 64.7908C112.605 63.3821 113.52 62.4388 114.765 61.7911C114.073 61.0994 113.504 60.2441 113.504 59.2631C113.504 57.7381 114.69 56.4395 116.51 56.4395C116.818 56.4395 117.123 56.4678 117.425 56.5432C118.199 56.713 118.812 57.191 119.186 57.7884C119.438 58.194 119.538 58.6216 119.538 59.0713C119.538 60.6403 118.397 61.5176 116.972 62.1213L119.699 64.599C120.029 63.9733 120.164 63.2878 120.164 62.5866C120.164 62.4609 120.164 62.3351 120.158 62.2093L120.151 62.0772L121.507 61.9955V62.137C121.507 62.2565 121.513 62.3791 121.513 62.4986C121.513 63.5236 121.239 64.577 120.664 65.4826L122.793 67.4195L120.966 67.4855L119.875 66.4762C118.916 67.3817 117.636 67.8534 116.227 67.8534C115.85 67.8534 115.476 67.8094 115.108 67.7339V67.7402H115.111ZM118.928 65.6178L115.708 62.6621C114.705 63.1275 113.963 63.7532 113.963 64.7845C113.963 66.014 114.825 66.6648 116.212 66.6648C117.237 66.6648 118.23 66.2749 118.931 65.6178H118.928ZM117.771 60.2441C118.079 59.936 118.177 59.5366 118.177 59.109C118.177 58.2254 117.535 57.6343 116.526 57.6343C116.268 57.6343 115.96 57.7066 115.715 57.8041C115.457 57.9079 115.243 58.106 115.095 58.3261C114.926 58.5682 114.866 58.8795 114.866 59.1876C114.866 60.0586 115.322 60.6088 116.001 61.2283C116.62 60.9767 117.35 60.6623 117.768 60.241H117.771V60.2441Z" fill="#AFAFAF"/>
<path d="M143.709 67.5987H142.265L147.02 56.6312H148.236L152.981 67.5987H151.516L150.265 64.6493H144.966L143.715 67.5987H143.709ZM147.608 58.4675L145.491 63.4198H149.721L147.604 58.4675H147.608Z" fill="#AFAFAF"/>
<path d="M161.031 63.008V56.6344H162.358V63.1432C162.358 64.9417 163.241 66.6208 165.461 66.6208C167.681 66.6208 168.577 64.9417 168.577 63.1432V56.6344H169.904V63.008C169.904 65.4857 168.731 67.8125 165.461 67.8125C162.191 67.8125 161.031 65.4763 161.031 63.008Z" fill="#AFAFAF"/>
<path d="M183.736 67.5987H182.409V57.8638H178.844V56.6344H187.311V57.8638H183.736V67.5987Z" fill="#AFAFAF"/>
<path d="M195.074 62.1181C195.074 59.1939 197.131 56.4143 200.772 56.4143C204.413 56.4143 206.47 59.1782 206.47 62.1181C206.47 65.0581 204.413 67.8157 200.772 67.8157C197.131 67.8157 195.074 65.0455 195.074 62.1181ZM202.486 66.3032C204.29 65.5738 205.102 63.8129 205.102 62.1181C205.102 60.4233 204.3 58.6625 202.486 57.933C201.948 57.7192 201.357 57.6092 200.769 57.6092C200.181 57.6092 199.596 57.7192 199.068 57.933C197.247 58.6625 196.43 60.4108 196.43 62.1181C196.43 63.8255 197.247 65.5738 199.068 66.3032C199.599 66.5171 200.181 66.6208 200.769 66.6208C201.357 66.6208 201.948 66.5171 202.486 66.3032Z" fill="#AFAFAF"/>
<path d="M216.506 67.5987H215.186V56.6312H216.283L220.232 61.5836L224.191 56.6312H225.289V67.5987H223.955V59.0146L220.412 63.423H220.05L216.506 59.0146V67.5987Z" fill="#AFAFAF"/>
<path d="M235.677 67.5987H234.234L238.988 56.6312H240.205L244.95 67.5987H243.485L242.233 64.6493H236.935L235.684 67.5987H235.677ZM239.576 58.4675L237.46 63.4198H241.689L239.573 58.4675H239.576Z" fill="#AFAFAF"/>
<path d="M256.417 67.5987H255.091V57.8638H251.525V56.6344H259.993V57.8638H256.417V67.5987Z" fill="#AFAFAF"/>
<path d="M272.661 67.5987H268.932V66.4195H270.127V57.8104H268.932V56.6312H272.661V57.8104H271.466V66.4195H272.661V67.5987Z" fill="#AFAFAF"/>
<path d="M280.94 62.1181C280.94 59.1939 282.996 56.4143 286.637 56.4143C290.279 56.4143 292.335 59.1782 292.335 62.1181C292.335 65.0581 290.279 67.8157 286.637 67.8157C282.996 67.8157 280.94 65.0455 280.94 62.1181ZM288.351 66.3032C290.156 65.5738 290.967 63.8129 290.967 62.1181C290.967 60.4233 290.165 58.6625 288.351 57.933C287.813 57.7192 287.222 57.6092 286.634 57.6092C286.046 57.6092 285.461 57.7192 284.933 57.933C283.113 58.6625 282.295 60.4108 282.295 62.1181C282.295 63.8255 283.113 65.5738 284.933 66.3032C285.465 66.5171 286.046 66.6208 286.634 66.6208C287.222 66.6208 287.813 66.5171 288.351 66.3032Z" fill="#AFAFAF"/>
<path d="M302.372 67.5987H301.051V56.6312H302.318L308.598 65.319V56.6312H309.918V67.5987H308.657L302.372 58.9172V67.5987Z" fill="#AFAFAF"/>
</g>
<defs>
<linearGradient id="paint0_linear_3206_960" x1="133.559" y1="38.5356" x2="174.53" y2="38.5356" gradientUnits="userSpaceOnUse">
<stop stop-color="#34BEF0"/>
<stop offset="0.28" stop-color="#2698D2"/>
<stop offset="0.72" stop-color="#1161A7"/>
<stop offset="0.93" stop-color="#0A4C97"/>
</linearGradient>
<linearGradient id="paint1_linear_3206_960" x1="120.095" y1="34.9449" x2="175.86" y2="34.9449" gradientUnits="userSpaceOnUse">
<stop stop-color="#34BEF0"/>
<stop offset="0.3" stop-color="#2391CD"/>
<stop offset="0.61" stop-color="#156BAF"/>
<stop offset="0.85" stop-color="#0D549D"/>
<stop offset="1" stop-color="#0A4C97"/>
</linearGradient>
<clipPath id="clip0_3206_960">
<rect width="310" height="67.707" fill="white" transform="translate(0 0.146484)"/>
</clipPath>
</defs>
</svg>
